<svg xmlns="http://www.w3.org/2000/svg" fill="currentColor" viewBox="0 0 764 200">
  <path fill-rule="evenodd" d="M55.791 149.146c-1.228 0-2.4-.48-3.274-1.355a4.645 4.645 0 0 1-1.355-3.274V55.484c0-1.228.494-2.4 1.355-3.275a4.672 4.672 0 0 1 3.274-1.355h128.525a2.554 2.554 0 0 1 2.555 2.555v18.645a2.552 2.552 0 0 1-2.555 2.541H81.805c-3.77 0-6.762 3.09-6.762 6.775v6.76h97.981a2.555 2.555 0 0 1 2.556 2.555v18.645a2.55 2.55 0 0 1-2.556 2.54h-97.98v6.776c0 3.656 3.005 6.633 6.76 6.633h102.512a2.554 2.554 0 0 1 2.555 2.555v18.772a2.55 2.55 0 0 1-2.555 2.54H55.791Zm280.723-58.461c0 12.605-7.524 23.387-18.448 27.946l17.628 26.564c.509.776.566 1.778.114 2.61a2.516 2.516 0 0 1-2.245 1.341h-22.356a2.569 2.569 0 0 1-2.132-1.129l-17.882-26.831h-66.381v25.42a2.538 2.538 0 0 1-2.54 2.54h-18.645a2.547 2.547 0 0 1-2.54-2.54V53.409a2.55 2.55 0 0 1 2.54-2.555H306.14c16.852 0 30.374 13.663 30.374 30.516v9.315Zm-23.599 0v-9.316c0-3.684-3.106-6.774-6.775-6.774h-81.328s0 22.864.014 22.864h81.314c3.669 0 6.775-3.006 6.775-6.774Zm141.867-39.831c16.711 0 30.516 13.663 30.516 30.516v9.315c0 16.852-13.805 30.501-30.516 30.501h-81.314v25.42a2.55 2.55 0 0 1-2.554 2.54h-18.631a2.551 2.551 0 0 1-2.555-2.54V53.409a2.555 2.555 0 0 1 2.555-2.555h102.499Zm6.775 39.831v-9.316c0-3.684-3.092-6.774-6.775-6.774h-81.314V97.46h81.314c3.683 0 6.775-3.006 6.775-6.774Zm66.507-13.035c12.339 0 22.358 10.019 22.358 22.359 0 12.322-10.019 22.342-22.358 22.342-12.34 0-22.358-10.02-22.358-22.342 0-12.34 10.018-22.359 22.358-22.359Zm8.605-22.21c.016 5.296-4.273 9.602-9.57 9.618-5.297.016-9.619-4.274-9.635-9.57l-.039-23.261c-.012-7.198-5.849-13.025-13.045-13.025-75.015 0-396.948.13-472.092.13a13.077 13.077 0 0 0-13.074 13.073V167.83c0 7.179 5.82 12.998 12.998 12.998 74.99 0 397.37-.13 472.24-.13a12.95 12.95 0 0 0 12.95-12.952l-.002-24.143c0-5.297 4.289-9.603 9.602-9.603 5.298 0 9.602 4.306 9.602 9.603v32.065c0 13.366-10.835 24.203-24.202 24.202-95.622 0-392.27.13-488.089.13A24.31 24.31 0 0 1 0 175.687V24.365C0 10.981 10.85.13 24.235.13 119.895.13 416.407 0 512.26 0c13.45 0 24.357 10.896 24.373 24.345l.036 31.094Zm110.983 21.275c-.517-.894-1.523-1.452-2.616-1.45-1.093.001-2.096.561-2.61 1.458l-40.676 70.965c-.515.898-1.52 1.458-2.615 1.458h-29.53c-1.051 0-2.024-.517-2.555-1.36a2.582 2.582 0 0 1-.029-2.736l55.974-92.79c.523-.868 1.512-1.406 2.583-1.406h39.518c1.085 0 2.082.55 2.601 1.434l54.491 92.789c.5.853.48 1.887-.06 2.722-.53.835-1.5 1.347-2.54 1.347H691.24c-1.092 0-2.095-.557-2.611-1.451l-40.977-70.98Zm85.256 72.431c-1.63 0-2.96-1.232-2.96-2.751V53.606c0-1.52 1.33-2.752 2.96-2.752h26.172c1.64 0 2.96 1.232 2.96 2.752v92.789c0 1.519-1.32 2.751-2.96 2.751h-26.172Z" class="ic-erp-ai-logo" clip-rule="evenodd"/>
</svg>
